<?xml version="1.0" standalone="no"?>
<!DOCTYPE svg PUBLIC "-//W3C//DTD SVG 20010904//EN"
 "http://www.w3.org/TR/2001/REC-SVG-20010904/DTD/svg10.dtd">
<svg version="1.0" xmlns="http://www.w3.org/2000/svg"
 width="1024.000000pt" height="1024.000000pt" viewBox="0 0 1024.000000 1024.000000"
 preserveAspectRatio="xMidYMid meet">

<g transform="translate(0.000000,1024.000000) scale(0.100000,-0.100000)"
fill="#16a34a" stroke="#none">
<path d="M4830 7829 c-264 -29 -591 -113 -830 -214 -376 -158 -755 -422 -1026
-714 -200 -216 -403 -524 -517 -785 -154 -353 -230 -696 -244 -1101 -16 -485
103 -981 338 -1410 403 -734 1070 -1247 1879 -1444 272 -67 356 -76 700 -76
344 1 434 10 700 76 508 124 958 369 1353 739 266 249 538 658 673 1013 129
336 194 700 194 1071 -1 352 -70 697 -212 1056 -299 758 -975 1386 -1783 1655
-141 47 -361 101 -495 121 -124 19 -598 28 -730 13z m483 -369 c575 -39 1112
-276 1563 -689 238 -218 407 -445 554 -746 77 -159 123 -286 170 -469 94 -372
103 -692 30 -1051 -27 -134 -81 -329 -93 -342 -6 -5 -174 144 -227 202 -14 15
-47 45 -73 66 -69 55 -98 53 -173 -13 -32 -28 -135 -117 -229 -197 -93 -80
-273 -236 -400 -346 -126 -110 -257 -223 -291 -252 l-60 -52 -103 -301 c-57
-165 -101 -303 -99 -306 17 -16 229 -94 258 -94 19 0 51 10 70 21 32 20 287
215 455 348 248 198 309 241 341 241 40 0 79 -31 94 -75 16 -47 -6 -89 -73
-140 -29 -22 -137 -107 -242 -191 -265 -210 -492 -380 -543 -405 -74 -37 -135
-25 -367 70 -110 45 -210 86 -221 91 -22 9 -22 9 18 137 22 70 121 373 219
673 98 300 229 705 291 900 l113 354 34 7 c18 4 37 13 42 21 10 15 69 201 69
216 0 6 -12 25 -26 42 l-27 31 44 135 c43 135 55 156 96 168 17 6 29 1 48 -20
28 -30 30 -50 13 -123 -10 -44 -9 -53 6 -70 21 -23 74 -35 92 -20 8 6 25 47
39 91 30 95 25 129 -30 200 -83 109 -235 118 -318 18 -23 -26 -86 -202 -113
-313 -3 -16 -13 -31 -21 -34 -13 -5 -533 61 -576 73 -25 8 -48 58 -201 446
l-137 346 21 50 c28 66 46 81 106 88 79 10 91 22 105 110 8 52 19 85 35 104
l23 27 -34 72 c-19 40 -35 77 -35 82 0 5 30 9 66 9 61 0 68 2 99 33 38 38 59
100 44 128 -9 17 -23 19 -130 19 l-121 0 -42 35 c-57 46 -117 67 -196 67 -111
1 -208 -63 -257 -169 -49 -107 -40 -211 28 -308 43 -62 46 -83 21 -135 -13
-27 -35 -44 -97 -77 -44 -23 -83 -42 -87 -43 -5 0 -8 18 -8 39 0 80 -54 158
-141 206 -47 26 -64 30 -134 29 -63 0 -89 -5 -122 -22 -53 -28 -107 -81 -132
-130 -10 -20 -103 -293 -206 -607 -214 -647 -212 -636 -155 -751 56 -115 155
-169 293 -162 l79 5 44 -55 c26 -32 43 -61 40 -71 -3 -9 -37 -142 -76 -296
-40 -154 -77 -300 -84 -325 l-11 -45 -430 -287 c-237 -158 -445 -292 -464
-299 -44 -15 -102 2 -130 38 -33 40 -29 107 8 144 16 16 35 29 43 30 7 0 24 1
38 3 14 1 81 42 150 92 69 50 211 148 315 219 105 70 194 132 199 137 12 10
-8 32 -209 221 -88 83 -297 284 -465 446 -168 162 -322 307 -344 323 -23 17
-52 28 -71 28 -33 0 -57 -18 -237 -182 -47 -43 -89 -78 -93 -78 -9 0 1 189 16
325 66 572 315 1100 714 1514 145 150 259 245 431 357 260 171 463 263 734
333 326 84 519 103 843 81z m67 -2331 c30 -50 63 -95 72 -100 9 -5 168 -32
354 -59 186 -28 339 -51 340 -53 2 -1 -30 -106 -71 -232 -40 -127 -126 -394
-190 -595 -103 -324 -294 -909 -326 -997 -6 -18 -15 -33 -19 -33 -4 0 -11 48
-15 108 -3 59 -10 159 -16 222 -5 63 -16 210 -24 325 l-14 210 -147 375 c-80
206 -150 389 -155 406 -7 25 3 68 57 240 36 115 70 224 75 242 6 17 13 32 17
32 4 -1 32 -42 62 -91z m-387 -1194 c54 -82 97 -157 97 -166 0 -23 58 -691 65
-749 8 -65 -1 -74 -56 -55 -97 35 -625 161 -1033 246 -133 28 -242 52 -244 53
-7 7 96 76 684 458 l90 59 99 172 c54 95 107 187 118 205 l19 33 33 -53 c17
-29 75 -120 128 -203z m2129 48 c35 -33 46 -85 25 -117 -9 -13 -105 -95 -214
-182 -108 -87 -265 -215 -348 -284 -186 -156 -192 -160 -231 -160 -39 0 -89
39 -98 76 -16 64 -1 80 317 335 166 134 327 264 358 291 100 85 136 93 191 41z"/>
<path d="M3726 6666 c-137 -51 -206 -197 -156 -330 55 -146 212 -215 345 -152
101 47 155 131 155 239 -1 100 -57 189 -146 232 -50 24 -148 29 -198 11z"/>
<path d="M4598 3552 c-49 -22 -242 -183 -231 -192 4 -4 55 -17 113 -29 58 -12
183 -43 278 -68 95 -25 175 -43 177 -41 2 2 -3 35 -12 73 -15 69 -17 72 -105
155 -89 85 -139 120 -168 120 -8 0 -32 -8 -52 -18z"/>
</g>
</svg>
