<?xml version="1.0" standalone="no"?>
<!DOCTYPE svg PUBLIC "-//W3C//DTD SVG 20010904//EN"
 "http://www.w3.org/TR/2001/REC-SVG-20010904/DTD/svg10.dtd">
<svg version="1.0" xmlns="http://www.w3.org/2000/svg"
 width="1003.000000pt" height="1003.000000pt" viewBox="0 0 1003.000000 1003.000000"
 preserveAspectRatio="xMidYMid meet">
<metadata>
Created by potrace 1.14, written by Peter Selinger 2001-2017
</metadata>
<g transform="translate(0.000000,1003.000000) scale(0.100000,-0.100000)"
fill="#000000" stroke="none">
<path d="M4905 8653 c-156 -4 -334 -23 -511 -53 -755 -131 -1391 -465 -1949
-1024 -596 -598 -941 -1294 -1061 -2138 -21 -153 -30 -577 -15 -749 13 -151
55 -440 77 -539 19 -82 75 -265 121 -395 151 -426 402 -842 689 -1144 401
-421 677 -632 1109 -849 386 -194 810 -316 1300 -374 183 -21 578 -16 775 10
189 26 468 81 584 115 75 22 78 24 47 30 -19 4 -85 7 -148 7 -126 0 -362 22
-493 46 -527 96 -1131 372 -1560 712 -103 82 -330 303 -349 340 l-12 22 2161
0 2160 0 65 83 c223 280 435 643 569 969 46 111 129 395 141 477 2 14 13 78
24 141 55 317 57 793 5 1180 -85 638 -386 1315 -814 1830 -92 110 -322 342
-430 434 -255 215 -534 394 -829 533 -495 233 -1078 351 -1656 336z m425
-1458 c408 -58 799 -226 1105 -473 l29 -23 -82 -82 c-46 -46 -79 -87 -75 -92
4 -4 3 -5 -3 -2 -7 4 -96 -79 -207 -190 l-195 -196 -83 53 c-341 219 -710 285
-1117 200 -626 -131 -1132 -743 -1132 -1370 0 -374 137 -709 399 -971 214
-213 483 -351 791 -405 159 -28 418 -26 570 5 135 27 343 94 453 145 l77 37 0
279 0 280 -350 0 -350 0 0 314 0 313 579 8 c319 4 640 4 715 0 l136 -7 1 -307
c3 -1105 2 -1281 -12 -1297 -22 -27 -268 -208 -355 -262 -272 -169 -629 -299
-939 -343 -135 -19 -446 -17 -585 4 -457 70 -902 293 -1239 621 -135 132 -217
231 -319 386 -42 63 -78 117 -81 120 -16 14 -134 277 -160 356 -65 200 -101
442 -101 679 0 174 13 300 46 455 143 669 591 1251 1193 1554 210 106 511 195
761 226 101 12 400 4 530 -15z m-2790 -717 c55 -38 75 -73 75 -133 0 -84 -56
-144 -142 -152 -39 -4 -55 0 -82 19 -70 47 -96 118 -71 192 28 85 146 124 220
74z m4005 -198 c110 -110 198 -200 195 -200 -3 0 -95 90 -205 200 -110 110
-198 200 -195 200 3 0 95 -90 205 -200z m905 -915 c124 -124 223 -225 220
-225 -3 0 -106 101 -230 225 -124 124 -223 225 -220 225 3 0 106 -101 230
-225z m-545 -1245 c21 -22 37 -40 34 -40 -3 0 -23 18 -44 40 -21 22 -37 40
-34 40 3 0 23 -18 44 -40z m175 -175 c30 -30 52 -55 49 -55 -2 0 -29 25 -59
55 -30 30 -52 55 -49 55 2 0 29 -25 59 -55z m-4180 -148 c0 -1 -44 -45 -97
-97 l-98 -95 95 98 c88 90 100 102 100 94z"/>
</g>
</svg>
