<?xml version="1.0" standalone="no"?>
<!DOCTYPE svg PUBLIC "-//W3C//DTD SVG 20010904//EN"
 "http://www.w3.org/TR/2001/REC-SVG-20010904/DTD/svg10.dtd">
<svg version="1.0" xmlns="http://www.w3.org/2000/svg"
 width="1003.000000pt" height="1003.000000pt" viewBox="0 0 1003.000000 1003.000000"
 preserveAspectRatio="xMidYMid meet">
<metadata>
Created by potrace 1.14, written by Peter Selinger 2001-2017
</metadata>
<g transform="translate(0.000000,1003.000000) scale(0.100000,-0.100000)"
fill="#000000" stroke="none">
<path d="M4768 8655 c-2 -2 -39 -6 -83 -9 -44 -4 -91 -8 -105 -11 -14 -2 -44
-7 -68 -10 -24 -3 -80 -13 -125 -21 -45 -8 -95 -17 -112 -20 -16 -3 -97 -23
-180 -44 -362 -93 -684 -231 -988 -424 -122 -77 -341 -234 -362 -260 -5 -7
-20 -19 -33 -28 -63 -43 -276 -246 -408 -389 -141 -152 -371 -469 -478 -659
-131 -233 -249 -512 -325 -765 -21 -68 -76 -304 -86 -368 -3 -18 -10 -54 -15
-82 -5 -27 -12 -72 -16 -100 -3 -27 -8 -61 -10 -75 -25 -184 -24 -656 1 -816
2 -12 7 -48 10 -80 7 -57 10 -72 19 -124 3 -14 8 -47 11 -75 15 -129 170 -638
207 -680 4 -5 8 -15 8 -23 0 -21 131 -289 195 -398 91 -154 239 -371 316 -459
214 -247 433 -459 634 -611 272 -207 525 -352 835 -477 247 -101 591 -199 780
-223 19 -2 60 -9 90 -14 30 -5 75 -12 100 -15 25 -3 56 -7 70 -10 142 -22 497
-22 705 0 76 8 152 17 175 21 14 2 43 7 65 10 22 3 74 12 115 21 103 21 102
20 130 27 14 3 36 8 50 10 112 21 443 132 585 196 437 199 687 360 996 642
158 145 373 372 465 493 109 142 249 358 334 513 228 416 346 795 396 1267 20
187 8 677 -21 895 -3 19 -7 53 -10 75 -21 164 -98 465 -170 665 -132 369 -264
620 -504 955 -416 581 -1087 1071 -1776 1296 -123 41 -398 113 -470 123 -22 4
-47 8 -55 11 -8 2 -35 6 -60 9 -25 3 -56 8 -70 11 -14 3 -50 7 -80 11 -30 3
-73 8 -95 10 -44 6 -581 14 -587 9z"/>
</g>
</svg>
