<?xml version="1.0" standalone="no"?>
<!DOCTYPE svg PUBLIC "-//W3C//DTD SVG 20010904//EN"
 "http://www.w3.org/TR/2001/REC-SVG-20010904/DTD/svg10.dtd">
<svg version="1.0" xmlns="http://www.w3.org/2000/svg"
 width="1024.000000pt" height="1024.000000pt" viewBox="0 0 1024.000000 1024.000000"
 preserveAspectRatio="xMidYMid meet">
<metadata>
Created by potrace 1.14, written by Peter Selinger 2001-2017
</metadata>
<g transform="translate(0.000000,1024.000000) scale(0.100000,-0.100000)"
fill="#000000" stroke="none">
<path d="M0 5120 l0 -5120 5120 0 5120 0 0 5120 0 5120 -5120 0 -5120 0 0
-5120z m5547 3041 c568 -97 983 -271 1402 -590 79 -60 319 -281 335 -308 6
-12 -18 -42 -96 -122 -57 -58 -189 -194 -293 -301 -105 -107 -272 -278 -372
-379 l-182 -185 -83 80 c-292 280 -626 432 -1015 464 -675 54 -1354 -331
-1646 -933 -190 -390 -232 -808 -121 -1204 l26 -93 -60 -67 c-33 -38 -110
-117 -170 -177 l-110 -109 -20 40 c-38 74 -111 308 -137 436 -105 533 -12
1052 275 1527 96 159 170 252 314 395 185 183 339 295 558 406 275 138 469
194 788 226 140 14 186 15 310 5 405 -34 771 -168 1070 -391 30 -23 57 -40 61
-39 5 2 105 100 225 218 l216 215 -43 38 c-24 22 -100 77 -169 122 -345 230
-666 353 -1090 421 -140 22 -486 30 -649 14 -470 -44 -881 -188 -1267 -445
-323 -215 -556 -444 -777 -765 -241 -350 -396 -756 -459 -1200 -19 -141 -17
-564 5 -707 75 -506 271 -964 570 -1336 453 -563 1078 -930 1758 -1032 679
-102 1380 50 1944 423 202 133 286 201 440 356 149 150 210 224 328 398 303
445 466 976 471 1528 0 96 -3 205 -7 243 l-9 67 -946 0 -947 0 -180 175 c-99
96 -175 175 -170 176 25 3 2490 -3 2493 -6 2 -2 15 -77 30 -167 23 -147 25
-193 26 -458 1 -315 -7 -406 -59 -647 -110 -507 -342 -980 -668 -1359 -343
-399 -825 -723 -1320 -888 -670 -223 -1296 -230 -1936 -21 -482 157 -879 402
-1242 764 -363 364 -583 719 -744 1206 -113 339 -148 562 -149 945 -1 339 21
519 98 801 135 491 377 925 715 1283 248 261 486 448 786 615 334 185 768 318
1180 360 157 16 572 6 712 -18z m-52 -2559 c203 -202 625 -620 938 -929 312
-309 567 -566 567 -571 0 -5 -23 -47 -51 -93 -188 -312 -497 -609 -809 -779
-335 -182 -639 -260 -1008 -260 -248 0 -427 29 -666 107 -461 150 -910 499
-1166 906 l-61 99 157 161 c397 407 1710 1727 1719 1727 5 0 176 -166 380
-368z m1759 -823 c8 -7 -53 -243 -88 -346 -30 -87 -76 -193 -85 -193 -3 0
-125 121 -271 268 l-265 267 55 6 c71 8 646 6 654 -2z"/>
<path d="M4448 4743 c-570 -569 -666 -669 -656 -682 93 -121 253 -266 413
-373 339 -227 787 -323 1186 -253 325 56 677 234 893 449 49 49 176 193 176
199 0 2 -141 143 -312 313 -172 170 -473 468 -668 661 -196 194 -358 353 -360
353 -3 0 -305 -300 -672 -667z m1236 -103 c313 -313 566 -570 563 -570 -4 0
-53 37 -109 83 -138 111 -403 312 -568 430 -74 53 -163 118 -198 143 -35 25
-66 44 -68 41 -3 -3 28 -119 70 -258 93 -319 126 -433 122 -436 -1 -2 -45 54
-98 125 -217 291 -351 463 -358 460 -4 -2 -60 -66 -125 -143 -97 -115 -312
-362 -412 -475 -23 -25 -5 15 172 388 42 90 75 165 73 167 -2 2 -30 -13 -63
-34 -59 -37 -386 -226 -435 -251 -24 -12 -23 -11 5 21 198 220 839 879 855
879 3 0 261 -256 574 -570z"/>
</g>
</svg>
