<?xml version="1.0" standalone="no"?>
<!DOCTYPE svg PUBLIC "-//W3C//DTD SVG 20010904//EN"
 "http://www.w3.org/TR/2001/REC-SVG-20010904/DTD/svg10.dtd">
<svg version="1.0" xmlns="http://www.w3.org/2000/svg"
 width="842.000000pt" height="842.000000pt" viewBox="0 0 842.000000 842.000000"
 preserveAspectRatio="xMidYMid meet">
<metadata>
Created by potrace 1.14, written by Peter Selinger 2001-2017
</metadata>
<g transform="translate(0.000000,842.000000) scale(0.100000,-0.100000)"
fill="#000000" stroke="none">
<path d="M4360 6026 c-8 -7 -69 -50 -135 -94 l-120 -80 -75 -133 c-41 -73 -88
-155 -103 -183 -16 -28 -35 -56 -44 -63 -12 -9 -116 -49 -153 -58 -3 -1 -12
-4 -20 -8 -8 -3 -84 -30 -168 -60 -85 -31 -155 -57 -156 -59 -2 -1 -47 -74
-101 -161 l-98 -159 -26 49 c-14 26 -35 65 -46 86 -11 20 -22 37 -25 37 -7 0
-130 -217 -130 -230 0 -5 -4 -10 -10 -10 -5 0 -10 -4 -10 -10 0 -5 -22 -47
-50 -94 -27 -47 -50 -89 -50 -95 0 -6 -4 -11 -10 -11 -5 0 -10 -4 -10 -9 0 -6
-9 -26 -21 -45 l-20 -35 -95 65 c-77 52 -98 63 -110 53 -8 -6 -14 -18 -14 -25
0 -8 -4 -14 -9 -14 -5 0 -11 -8 -14 -17 -4 -10 -17 -36 -30 -58 -56 -92 -227
-387 -227 -391 0 -3 -8 -13 -17 -22 -16 -16 -14 -17 33 -22 95 -10 101 -6 187
120 43 63 83 115 88 115 6 0 34 -53 62 -118 l52 -118 54 3 54 3 103 165 c57
91 113 183 124 205 12 22 32 53 44 68 l22 28 -3 -58 c-2 -32 -5 -101 -8 -153
-2 -52 -6 -132 -9 -177 l-6 -83 30 0 c30 0 34 6 45 66 2 10 4 19 5 19 1 0 3 7
14 50 2 11 23 92 46 180 42 161 69 267 75 295 2 8 15 59 30 113 15 54 28 107
30 118 2 10 6 22 8 27 3 4 8 25 11 46 4 22 8 41 9 42 4 3 242 96 252 99 6 1
24 8 40 14 88 37 131 49 121 32 -5 -7 -75 -257 -91 -321 -2 -8 -29 -107 -60
-218 -31 -112 -58 -211 -60 -220 -2 -10 -8 -29 -14 -44 -6 -16 -8 -28 -5 -28
2 0 0 -9 -6 -20 -23 -43 8 -17 34 28 15 26 35 61 45 77 10 17 51 86 92 155 40
69 76 127 79 130 4 3 13 19 22 35 8 17 75 131 149 255 74 124 184 307 243 408
60 100 112 182 116 182 6 0 36 -132 45 -195 2 -11 7 -38 13 -60 6 -22 13 -53
16 -70 3 -16 7 -42 10 -57 4 -16 8 -38 10 -50 2 -13 9 -43 15 -68 5 -25 13
-61 16 -80 3 -19 15 -75 26 -125 10 -49 19 -91 19 -94 0 -3 70 64 155 149 125
124 157 152 165 140 5 -8 10 -19 10 -24 0 -5 30 -101 66 -214 36 -113 67 -210
69 -216 1 -6 5 -18 8 -26 5 -13 51 -155 103 -318 18 -57 40 -83 30 -36 -5 26
-11 79 -21 196 -2 21 -6 59 -9 85 -3 27 -8 73 -11 103 -11 114 -16 156 -20
190 -2 19 -7 67 -11 105 -3 39 -8 80 -9 93 -3 28 7 28 20 -1 22 -46 60 -112
68 -115 4 -2 7 -7 7 -12 0 -7 24 -52 101 -187 12 -21 29 -50 36 -65 21 -41 33
-43 34 -6 0 18 3 44 5 58 6 35 12 80 13 113 1 23 3 26 14 15 24 -25 97 -127
97 -137 0 -5 4 -11 9 -13 8 -3 185 -244 273 -373 23 -33 44 -62 48 -65 3 -3
30 -40 60 -82 47 -66 59 -78 84 -78 19 0 26 4 23 13 -8 18 -99 238 -141 342
-20 50 -43 104 -50 120 -7 17 -44 106 -82 200 l-69 169 -110 109 c-60 60 -142
140 -182 179 -54 54 -75 69 -85 61 -7 -6 -35 -22 -61 -37 -26 -14 -58 -33 -72
-42 -27 -18 8 -56 -355 391 -117 143 -228 280 -248 304 -21 24 -38 48 -40 52
-5 14 -36 11 -52 -5z"/>
<path d="M3145 3749 c-91 -35 -146 -104 -168 -209 -44 -216 68 -382 258 -382
63 0 127 23 154 56 19 23 29 20 33 -11 3 -25 7 -28 45 -31 l43 -3 -2 155 c0
107 -4 156 -12 157 -14 1 -184 1 -211 0 -20 -1 -24 -20 -16 -87 1 -7 23 -11
61 -9 33 1 63 -1 66 -6 2 -5 -4 -26 -15 -47 -26 -50 -82 -77 -147 -69 -87 9
-136 73 -139 181 -5 139 60 226 165 221 55 -3 89 -22 111 -60 20 -34 23 -35
79 -35 l58 0 -10 40 c-12 46 -70 109 -124 135 -55 26 -167 28 -229 4z"/>
<path d="M6095 3751 c-3 -2 -5 -25 -5 -51 l0 -47 58 -2 58 -1 -1 52 0 53 -53
0 c-29 1 -55 -1 -57 -4z"/>
<path d="M730 3460 l0 -290 204 0 c154 0 205 3 208 13 3 6 4 30 4 52 l-2 40
-139 1 c-77 1 -143 2 -146 3 -3 0 -5 107 -5 236 l1 235 -62 0 -63 0 0 -290z"/>
<path d="M4392 3460 l-1 -290 57 0 57 0 1 290 0 290 -57 0 -57 0 0 -290z"/>
<path d="M1497 3605 c-72 -18 -120 -64 -141 -135 -14 -47 -15 -138 -1 -180 40
-131 246 -179 353 -82 22 20 43 49 47 63 6 25 5 25 -50 25 -31 -1 -59 -6 -63
-12 -13 -19 -50 -34 -87 -34 -43 0 -95 45 -95 82 l0 23 156 -1 155 -1 -2 51
c-3 58 -13 88 -46 134 -44 60 -141 89 -226 67z m128 -115 c14 -13 25 -32 25
-42 0 -15 -8 -18 -47 -19 -27 0 -69 -1 -96 -2 -26 -1 -47 2 -47 6 0 17 31 66
47 76 29 16 92 6 118 -19z"/>
<path d="M2130 3609 c-59 -8 -90 -21 -118 -52 -43 -46 -45 -133 -5 -169 19
-17 125 -55 178 -64 53 -9 73 -58 31 -74 -52 -19 -123 0 -132 36 -6 22 -11 24
-60 23 -30 -1 -56 -4 -58 -8 -2 -3 1 -19 5 -36 11 -41 54 -85 90 -92 16 -3 29
-8 29 -12 0 -14 148 -2 185 16 74 35 104 117 65 181 -23 38 -54 55 -145 77
-88 22 -105 31 -105 55 0 17 20 29 58 36 25 5 69 -17 79 -39 9 -20 17 -22 67
-19 31 2 54 7 52 11 -3 4 -7 20 -10 35 -11 63 -111 109 -206 95z"/>
<path d="M3919 3609 c-70 -8 -116 -34 -138 -79 -27 -56 -23 -64 35 -68 45 -3
51 -1 62 22 21 47 131 47 138 0 4 -28 -18 -47 -59 -49 -26 -2 -73 -11 -107
-20 -55 -16 -87 -50 -96 -104 -20 -124 104 -195 220 -127 53 31 56 31 56 6 0
-18 7 -20 58 -20 66 0 78 6 57 27 -12 11 -15 46 -15 163 0 82 -4 160 -10 174
-19 51 -111 85 -201 75z m96 -281 c-5 -53 -41 -88 -88 -88 -37 0 -51 8 -60 34
-16 43 11 71 80 82 21 3 40 8 42 10 2 2 10 4 17 4 9 0 11 -13 9 -42z"/>
<path d="M4908 3605 c-93 -23 -149 -96 -154 -199 -4 -111 43 -199 125 -234 81
-34 205 -10 257 50 50 58 70 187 40 258 -44 105 -150 155 -268 125z m127 -108
c23 -24 35 -63 35 -118 0 -102 -70 -156 -149 -114 -68 35 -70 196 -3 238 32
21 93 17 117 -6z"/>
<path d="M5585 3583 c-18 -12 -35 -28 -38 -35 -3 -7 -6 2 -6 20 l-1 32 -55 0
-55 0 0 -300 0 -300 55 0 c63 0 57 -11 57 123 -1 48 3 87 9 87 5 0 9 -4 9 -8
0 -18 65 -45 106 -43 111 4 173 75 181 206 3 60 -12 139 -31 163 -68 83 -158
105 -231 55z m96 -83 c44 -24 63 -132 33 -195 -35 -75 -138 -67 -165 12 -21
63 -5 151 34 178 25 17 70 20 98 5z"/>
<path d="M6138 3602 l-48 -3 0 -215 0 -214 58 0 58 0 -1 209 c0 128 -4 213
-10 218 -5 4 -31 7 -57 5z"/>
<path d="M6640 3592 c-14 -9 -29 -22 -33 -29 -12 -20 -24 -15 -23 10 1 19 -4
22 -48 25 -27 2 -52 -1 -55 -6 -3 -6 -6 -102 -6 -214 l1 -203 57 -3 57 -3 0
138 c0 120 3 142 20 171 11 17 28 33 37 33 10 1 27 3 39 4 11 1 29 -4 40 -12
17 -12 19 -30 22 -173 l3 -160 58 0 57 0 -1 168 c-1 181 -8 213 -52 246 -36
26 -138 31 -173 8z"/>
<path d="M7225 3603 c-76 -19 -120 -101 -99 -181 6 -22 78 -72 104 -72 7 0 44
-9 81 -20 61 -18 69 -24 69 -45 0 -31 -24 -43 -78 -40 -44 3 -86 30 -78 51 3
8 -14 12 -55 13 -56 1 -59 0 -59 -22 0 -35 40 -90 80 -109 43 -21 119 -28 174
-16 22 5 47 9 54 10 7 1 28 18 46 39 60 71 41 162 -42 197 -43 18 -153 48
-160 43 -5 -3 -32 28 -32 38 0 20 42 39 77 35 44 -6 52 -10 62 -37 7 -19 16
-22 56 -20 26 1 52 6 56 10 4 4 -1 27 -11 51 -25 55 -79 82 -165 81 -33 -1
-69 -4 -80 -6z"/>
</g>
</svg>
